<svg id="visual" viewBox="0 0 960 540" width="960" height="540" xmlns="http://www.w3.org/2000/svg" xmlns:xlink="http://www.w3.org/1999/xlink" version="1.1"><path d="M0 152L32 162C64 172 128 192 192 194.7C256 197.3 320 182.7 384 181.7C448 180.7 512 193.3 576 191.7C640 190 704 174 768 174C832 174 896 190 928 198L960 206L960 0L928 0C896 0 832 0 768 0C704 0 640 0 576 0C512 0 448 0 384 0C320 0 256 0 192 0C128 0 64 0 32 0L0 0Z" fill="#02001d"></path><path d="M0 260L32 271.7C64 283.3 128 306.7 192 313.8C256 321 320 312 384 310.3C448 308.7 512 314.3 576 304.5C640 294.7 704 269.3 768 270.2C832 271 896 298 928 311.5L960 325L960 204L928 196C896 188 832 172 768 172C704 172 640 188 576 189.7C512 191.3 448 178.7 384 179.7C320 180.7 256 195.3 192 192.7C128 190 64 170 32 160L0 150Z" fill="#020022"></path><path d="M0 449L32 451.7C64 454.3 128 459.7 192 463.3C256 467 320 469 384 466.3C448 463.7 512 456.3 576 451.8C640 447.3 704 445.7 768 449.3C832 453 896 462 928 466.5L960 471L960 323L928 309.5C896 296 832 269 768 268.2C704 267.3 640 292.7 576 302.5C512 312.3 448 306.7 384 308.3C320 310 256 319 192 311.8C128 304.7 64 281.3 32 269.7L0 258Z" fill="#000d3b"></path><path d="M0 541L32 541C64 541 128 541 192 541C256 541 320 541 384 541C448 541 512 541 576 541C640 541 704 541 768 541C832 541 896 541 928 541L960 541L960 469L928 464.5C896 460 832 451 768 447.3C704 443.7 640 445.3 576 449.8C512 454.3 448 461.7 384 464.3C320 467 256 465 192 461.3C128 457.7 64 452.3 32 449.7L0 447Z" fill="#00176a"></path></svg>